<svg width="auto" height="auto" viewBox="0 0 24 24" fill="none" xmlns="http://www.w3.org/2000/svg">
<mask id="path-1-outside-1_1977_5893" maskUnits="userSpaceOnUse" x="3" y="4" width="18" height="15" fill="black">
<rect fill="white" x="3" y="4" width="18" height="15"/>
<path d="M19.9569 9.25899C20.0585 8.8004 19.9791 8.32176 19.7343 7.91663C19.5972 7.69347 19.4127 7.50084 19.1929 7.35142C18.973 7.20199 18.7229 7.09917 18.459 7.04969C18.335 7.02519 18.2088 7.01282 18.0822 7.01278H18.0729C17.6291 7.01649 17.2002 7.1684 16.8593 7.44269C16.5184 7.71697 16.2864 8.09671 16.2029 8.51734C16.0888 9.03524 15.8812 9.52975 15.5896 9.97827C15.5729 10.0036 15.5495 10.0241 15.5218 10.0377C15.4942 10.0513 15.4632 10.0575 15.4322 10.0557C15.4012 10.0539 15.3713 10.0441 15.3455 10.0273C15.3198 10.0105 15.2992 9.98743 15.2858 9.96037L13.3844 6.10109C13.268 5.85719 13.0997 5.63969 12.8903 5.46276C12.681 5.28582 12.4353 5.15342 12.1694 5.07419C11.7328 4.95113 11.2651 4.9819 10.8499 5.16101C10.4346 5.34013 10.099 5.6559 9.90287 6.05187L7.93195 10.0443C7.92082 10.0676 7.90301 10.0873 7.88061 10.1012C7.85822 10.115 7.83218 10.1224 7.80558 10.1224C7.77898 10.1224 7.75294 10.115 7.73055 10.1012C7.70815 10.0873 7.69033 10.0676 7.67921 10.0443C7.58379 9.81808 7.44283 9.6124 7.26449 9.43912C7.08615 9.26585 6.87396 9.12842 6.6402 9.03479C6.40644 8.94116 6.15577 8.89319 5.90267 8.89366C5.64957 8.89412 5.39909 8.94301 5.1657 9.0375C4.69631 9.23584 4.3269 9.60477 4.13764 10.0642C3.94837 10.5237 3.95452 11.0367 4.15473 11.4918C4.56753 12.3879 5.17664 13.187 5.94016 13.8342C5.96776 13.8583 5.9866 13.8904 5.9939 13.9256C6.00121 13.9609 5.99659 13.9974 5.98074 14.03L5.3454 15.3209C5.12465 15.759 5.08943 16.2628 5.24721 16.7256C5.40499 17.1884 5.74336 17.5736 6.19058 17.7997C6.45826 17.9306 6.75424 17.9984 7.05431 17.9977C7.41601 17.9968 7.77009 17.8974 8.07587 17.711C8.38166 17.5246 8.62673 17.2588 8.78293 16.944L9.33131 15.8321C9.34888 15.7966 9.37883 15.7682 9.41592 15.7518C9.453 15.7354 9.49487 15.7322 9.53419 15.7426C10.1863 15.9172 10.8596 16.0075 11.5364 16.0111C12.2762 16.0089 13.012 15.9057 13.7218 15.7045C13.7615 15.6936 13.8039 15.6965 13.8416 15.7127C13.8793 15.7288 13.91 15.7572 13.9282 15.7929L14.4708 16.8948C14.6248 17.2173 14.8693 17.4917 15.1767 17.6871C15.484 17.8824 15.8419 17.9908 16.2098 18C16.5134 18.0014 16.8131 17.9331 17.084 17.8009C18.0184 17.3456 18.3767 16.2281 17.9269 15.3153L17.244 13.9304C17.2283 13.8981 17.2236 13.8619 17.2307 13.8269C17.2378 13.7919 17.2562 13.7599 17.2834 13.7358C18.6359 12.5485 19.5705 10.9834 19.9569 9.25899ZM8.14991 16.6565C8.08032 16.7973 7.98242 16.9233 7.86191 17.0272C7.7414 17.1312 7.60068 17.211 7.44793 17.262C7.29518 17.313 7.13344 17.3342 6.97212 17.3243C6.81081 17.3145 6.65313 17.2738 6.50825 17.2046C6.2206 17.0587 6.00331 16.8103 5.90263 16.5122C5.80194 16.214 5.82581 15.8898 5.96914 15.6083L6.49665 14.5378C6.50785 14.5163 6.52368 14.4973 6.54309 14.4822C6.5625 14.4671 6.58504 14.4561 6.60919 14.4501C6.63335 14.4441 6.65856 14.4431 6.68314 14.4472C6.70772 14.4513 6.7311 14.4605 6.75171 14.4741C6.86765 14.5512 6.98359 14.6262 7.09952 14.6978C7.55985 14.9832 8.04653 15.227 8.55337 15.426C8.57492 15.4345 8.59447 15.4472 8.61087 15.4631C8.62727 15.4791 8.64018 15.4981 8.64883 15.5189C8.65748 15.5398 8.6617 15.5621 8.66123 15.5846C8.66077 15.6071 8.65563 15.6292 8.64612 15.6497L8.14991 16.6565ZM11.5318 15.3399C8.72844 15.3399 5.76509 13.5064 4.78427 11.1663C4.71956 11.0224 4.68535 10.8674 4.68365 10.7106C4.68196 10.5537 4.71281 10.3981 4.7744 10.2529C4.83598 10.1078 4.92706 9.97594 5.04225 9.86525C5.15745 9.75456 5.29443 9.66723 5.44515 9.60841C5.59586 9.54959 5.75725 9.52046 5.91981 9.52274C6.08237 9.52502 6.24281 9.55867 6.39168 9.6217C6.54056 9.68473 6.67485 9.77587 6.78666 9.88974C6.89847 10.0036 6.98553 10.1379 7.04271 10.2848C7.65718 11.7513 9.70926 12.9896 11.5318 12.9896C11.8114 12.9887 12.0904 12.9637 12.3654 12.9147C12.4031 12.9071 12.4424 12.9121 12.4769 12.9287C12.5114 12.9454 12.5391 12.9727 12.5555 13.0064L13.476 14.8712C13.4871 14.8936 13.4928 14.9181 13.4928 14.943C13.4928 14.9678 13.487 14.9923 13.4759 15.0148C13.4648 15.0372 13.4486 15.0569 13.4286 15.0725C13.4085 15.0881 13.3852 15.0992 13.3601 15.105C12.7638 15.2596 12.1492 15.3385 11.5318 15.3399ZM11.1295 12.173L11.5527 11.315C11.5603 11.2997 11.5723 11.2867 11.5873 11.2776C11.6023 11.2685 11.6196 11.2637 11.6373 11.2637C11.655 11.2637 11.6723 11.2685 11.6873 11.2776C11.7022 11.2867 11.7143 11.2997 11.7219 11.315L12.1347 12.1518C12.1412 12.1646 12.1445 12.1787 12.1443 12.193C12.1441 12.2073 12.1405 12.2214 12.1336 12.234C12.1267 12.2467 12.1168 12.2576 12.1047 12.2659C12.0926 12.2741 12.0786 12.2795 12.0639 12.2815C11.8876 12.3054 11.7098 12.3178 11.5318 12.3184C11.424 12.3184 11.3138 12.3184 11.2048 12.3028C11.1899 12.3011 11.1756 12.2961 11.163 12.288C11.1505 12.28 11.1401 12.2692 11.1328 12.2565C11.1254 12.2438 11.1213 12.2297 11.1207 12.2151C11.1201 12.2006 11.1231 12.1862 11.1295 12.173ZM16.7652 17.2069C16.6205 17.2765 16.4628 17.3175 16.3015 17.3276C16.1401 17.3376 15.9783 17.3165 15.8255 17.2655C15.6727 17.2144 15.532 17.1345 15.4117 17.0303C15.2914 16.9261 15.1938 16.7998 15.1247 16.6587L11.8031 9.91787C11.7883 9.8875 11.7648 9.86182 11.7355 9.84383C11.7061 9.82584 11.6721 9.81629 11.6373 9.81629C11.6025 9.81629 11.5684 9.82584 11.5391 9.84383C11.5097 9.86182 11.4863 9.8875 11.4715 9.91787L10.442 12.0075C10.424 12.0444 10.3926 12.0737 10.3537 12.0898C10.3148 12.1059 10.2711 12.1076 10.231 12.0947C9.53557 11.8632 8.90204 11.4857 8.37599 10.9895C8.35108 10.9651 8.33459 10.9338 8.32878 10.8999C8.32297 10.8661 8.32812 10.8314 8.34352 10.8005L10.5695 6.28343C10.6455 6.12248 10.7658 5.98474 10.9173 5.8852C11.0637 5.78524 11.231 5.71727 11.4074 5.686C11.5838 5.65474 11.7652 5.66093 11.9388 5.70416C12.1125 5.74739 12.2744 5.8266 12.4131 5.9363C12.5518 6.046 12.6641 6.18354 12.7422 6.33936L17.302 15.6083C17.4458 15.8894 17.4701 16.2136 17.3699 16.5118C17.2696 16.8099 17.0526 17.0586 16.7652 17.2046V17.2069ZM15.8052 11.0063C15.7915 10.978 15.7862 10.9466 15.7899 10.9156C15.7936 10.8846 15.8061 10.8552 15.8261 10.8307C16.354 10.1873 16.7199 9.43445 16.895 8.63144C16.95 8.36511 17.0989 8.12537 17.3164 7.95303C17.5339 7.78069 17.8066 7.6864 18.088 7.6862C18.2738 7.68623 18.4572 7.72715 18.6241 7.80584C18.7911 7.88454 18.9373 7.99894 19.0515 8.14034C19.1658 8.28174 19.2451 8.44642 19.2834 8.62185C19.3218 8.79728 19.3182 8.97884 19.2729 9.15272C18.9412 10.621 18.1761 11.9652 17.0701 13.0232C17.0504 13.0424 17.0263 13.0567 16.9997 13.065C16.9731 13.0733 16.9448 13.0754 16.9172 13.071C16.8897 13.0666 16.8636 13.0559 16.8411 13.0398C16.8187 13.0237 16.8006 13.0027 16.7884 12.9784L15.8052 11.0063Z"/>
</mask>
<path d="M19.9569 9.25899C20.0585 8.8004 19.9791 8.32176 19.7343 7.91663C19.5972 7.69347 19.4127 7.50084 19.1929 7.35142C18.973 7.20199 18.7229 7.09917 18.459 7.04969C18.335 7.02519 18.2088 7.01282 18.0822 7.01278H18.0729C17.6291 7.01649 17.2002 7.1684 16.8593 7.44269C16.5184 7.71697 16.2864 8.09671 16.2029 8.51734C16.0888 9.03524 15.8812 9.52975 15.5896 9.97827C15.5729 10.0036 15.5495 10.0241 15.5218 10.0377C15.4942 10.0513 15.4632 10.0575 15.4322 10.0557C15.4012 10.0539 15.3713 10.0441 15.3455 10.0273C15.3198 10.0105 15.2992 9.98743 15.2858 9.96037L13.3844 6.10109C13.268 5.85719 13.0997 5.63969 12.8903 5.46276C12.681 5.28582 12.4353 5.15342 12.1694 5.07419C11.7328 4.95113 11.2651 4.9819 10.8499 5.16101C10.4346 5.34013 10.099 5.6559 9.90287 6.05187L7.93195 10.0443C7.92082 10.0676 7.90301 10.0873 7.88061 10.1012C7.85822 10.115 7.83218 10.1224 7.80558 10.1224C7.77898 10.1224 7.75294 10.115 7.73055 10.1012C7.70815 10.0873 7.69033 10.0676 7.67921 10.0443C7.58379 9.81808 7.44283 9.6124 7.26449 9.43912C7.08615 9.26585 6.87396 9.12842 6.6402 9.03479C6.40644 8.94116 6.15577 8.89319 5.90267 8.89366C5.64957 8.89412 5.39909 8.94301 5.1657 9.0375C4.69631 9.23584 4.3269 9.60477 4.13764 10.0642C3.94837 10.5237 3.95452 11.0367 4.15473 11.4918C4.56753 12.3879 5.17664 13.187 5.94016 13.8342C5.96776 13.8583 5.9866 13.8904 5.9939 13.9256C6.00121 13.9609 5.99659 13.9974 5.98074 14.03L5.3454 15.3209C5.12465 15.759 5.08943 16.2628 5.24721 16.7256C5.40499 17.1884 5.74336 17.5736 6.19058 17.7997C6.45826 17.9306 6.75424 17.9984 7.05431 17.9977C7.41601 17.9968 7.77009 17.8974 8.07587 17.711C8.38166 17.5246 8.62673 17.2588 8.78293 16.944L9.33131 15.8321C9.34888 15.7966 9.37883 15.7682 9.41592 15.7518C9.453 15.7354 9.49487 15.7322 9.53419 15.7426C10.1863 15.9172 10.8596 16.0075 11.5364 16.0111C12.2762 16.0089 13.012 15.9057 13.7218 15.7045C13.7615 15.6936 13.8039 15.6965 13.8416 15.7127C13.8793 15.7288 13.91 15.7572 13.9282 15.7929L14.4708 16.8948C14.6248 17.2173 14.8693 17.4917 15.1767 17.6871C15.484 17.8824 15.8419 17.9908 16.2098 18C16.5134 18.0014 16.8131 17.9331 17.084 17.8009C18.0184 17.3456 18.3767 16.2281 17.9269 15.3153L17.244 13.9304C17.2283 13.8981 17.2236 13.8619 17.2307 13.8269C17.2378 13.7919 17.2562 13.7599 17.2834 13.7358C18.6359 12.5485 19.5705 10.9834 19.9569 9.25899ZM8.14991 16.6565C8.08032 16.7973 7.98242 16.9233 7.86191 17.0272C7.7414 17.1312 7.60068 17.211 7.44793 17.262C7.29518 17.313 7.13344 17.3342 6.97212 17.3243C6.81081 17.3145 6.65313 17.2738 6.50825 17.2046C6.2206 17.0587 6.00331 16.8103 5.90263 16.5122C5.80194 16.214 5.82581 15.8898 5.96914 15.6083L6.49665 14.5378C6.50785 14.5163 6.52368 14.4973 6.54309 14.4822C6.5625 14.4671 6.58504 14.4561 6.60919 14.4501C6.63335 14.4441 6.65856 14.4431 6.68314 14.4472C6.70772 14.4513 6.7311 14.4605 6.75171 14.4741C6.86765 14.5512 6.98359 14.6262 7.09952 14.6978C7.55985 14.9832 8.04653 15.227 8.55337 15.426C8.57492 15.4345 8.59447 15.4472 8.61087 15.4631C8.62727 15.4791 8.64018 15.4981 8.64883 15.5189C8.65748 15.5398 8.6617 15.5621 8.66123 15.5846C8.66077 15.6071 8.65563 15.6292 8.64612 15.6497L8.14991 16.6565ZM11.5318 15.3399C8.72844 15.3399 5.76509 13.5064 4.78427 11.1663C4.71956 11.0224 4.68535 10.8674 4.68365 10.7106C4.68196 10.5537 4.71281 10.3981 4.7744 10.2529C4.83598 10.1078 4.92706 9.97594 5.04225 9.86525C5.15745 9.75456 5.29443 9.66723 5.44515 9.60841C5.59586 9.54959 5.75725 9.52046 5.91981 9.52274C6.08237 9.52502 6.24281 9.55867 6.39168 9.6217C6.54056 9.68473 6.67485 9.77587 6.78666 9.88974C6.89847 10.0036 6.98553 10.1379 7.04271 10.2848C7.65718 11.7513 9.70926 12.9896 11.5318 12.9896C11.8114 12.9887 12.0904 12.9637 12.3654 12.9147C12.4031 12.9071 12.4424 12.9121 12.4769 12.9287C12.5114 12.9454 12.5391 12.9727 12.5555 13.0064L13.476 14.8712C13.4871 14.8936 13.4928 14.9181 13.4928 14.943C13.4928 14.9678 13.487 14.9923 13.4759 15.0148C13.4648 15.0372 13.4486 15.0569 13.4286 15.0725C13.4085 15.0881 13.3852 15.0992 13.3601 15.105C12.7638 15.2596 12.1492 15.3385 11.5318 15.3399ZM11.1295 12.173L11.5527 11.315C11.5603 11.2997 11.5723 11.2867 11.5873 11.2776C11.6023 11.2685 11.6196 11.2637 11.6373 11.2637C11.655 11.2637 11.6723 11.2685 11.6873 11.2776C11.7022 11.2867 11.7143 11.2997 11.7219 11.315L12.1347 12.1518C12.1412 12.1646 12.1445 12.1787 12.1443 12.193C12.1441 12.2073 12.1405 12.2214 12.1336 12.234C12.1267 12.2467 12.1168 12.2576 12.1047 12.2659C12.0926 12.2741 12.0786 12.2795 12.0639 12.2815C11.8876 12.3054 11.7098 12.3178 11.5318 12.3184C11.424 12.3184 11.3138 12.3184 11.2048 12.3028C11.1899 12.3011 11.1756 12.2961 11.163 12.288C11.1505 12.28 11.1401 12.2692 11.1328 12.2565C11.1254 12.2438 11.1213 12.2297 11.1207 12.2151C11.1201 12.2006 11.1231 12.1862 11.1295 12.173ZM16.7652 17.2069C16.6205 17.2765 16.4628 17.3175 16.3015 17.3276C16.1401 17.3376 15.9783 17.3165 15.8255 17.2655C15.6727 17.2144 15.532 17.1345 15.4117 17.0303C15.2914 16.9261 15.1938 16.7998 15.1247 16.6587L11.8031 9.91787C11.7883 9.8875 11.7648 9.86182 11.7355 9.84383C11.7061 9.82584 11.6721 9.81629 11.6373 9.81629C11.6025 9.81629 11.5684 9.82584 11.5391 9.84383C11.5097 9.86182 11.4863 9.8875 11.4715 9.91787L10.442 12.0075C10.424 12.0444 10.3926 12.0737 10.3537 12.0898C10.3148 12.1059 10.2711 12.1076 10.231 12.0947C9.53557 11.8632 8.90204 11.4857 8.37599 10.9895C8.35108 10.9651 8.33459 10.9338 8.32878 10.8999C8.32297 10.8661 8.32812 10.8314 8.34352 10.8005L10.5695 6.28343C10.6455 6.12248 10.7658 5.98474 10.9173 5.8852C11.0637 5.78524 11.231 5.71727 11.4074 5.686C11.5838 5.65474 11.7652 5.66093 11.9388 5.70416C12.1125 5.74739 12.2744 5.8266 12.4131 5.9363C12.5518 6.046 12.6641 6.18354 12.7422 6.33936L17.302 15.6083C17.4458 15.8894 17.4701 16.2136 17.3699 16.5118C17.2696 16.8099 17.0526 17.0586 16.7652 17.2046V17.2069ZM15.8052 11.0063C15.7915 10.978 15.7862 10.9466 15.7899 10.9156C15.7936 10.8846 15.8061 10.8552 15.8261 10.8307C16.354 10.1873 16.7199 9.43445 16.895 8.63144C16.95 8.36511 17.0989 8.12537 17.3164 7.95303C17.5339 7.78069 17.8066 7.6864 18.088 7.6862C18.2738 7.68623 18.4572 7.72715 18.6241 7.80584C18.7911 7.88454 18.9373 7.99894 19.0515 8.14034C19.1658 8.28174 19.2451 8.44642 19.2834 8.62185C19.3218 8.79728 19.3182 8.97884 19.2729 9.15272C18.9412 10.621 18.1761 11.9652 17.0701 13.0232C17.0504 13.0424 17.0263 13.0567 16.9997 13.065C16.9731 13.0733 16.9448 13.0754 16.9172 13.071C16.8897 13.0666 16.8636 13.0559 16.8411 13.0398C16.8187 13.0237 16.8006 13.0027 16.7884 12.9784L15.8052 11.0063Z" fill="white" style="fill:white;fill:white;fill-opacity:1;"/>
<path d="M19.9569 9.25899C20.0585 8.8004 19.9791 8.32176 19.7343 7.91663C19.5972 7.69347 19.4127 7.50084 19.1929 7.35142C18.973 7.20199 18.7229 7.09917 18.459 7.04969C18.335 7.02519 18.2088 7.01282 18.0822 7.01278H18.0729C17.6291 7.01649 17.2002 7.1684 16.8593 7.44269C16.5184 7.71697 16.2864 8.09671 16.2029 8.51734C16.0888 9.03524 15.8812 9.52975 15.5896 9.97827C15.5729 10.0036 15.5495 10.0241 15.5218 10.0377C15.4942 10.0513 15.4632 10.0575 15.4322 10.0557C15.4012 10.0539 15.3713 10.0441 15.3455 10.0273C15.3198 10.0105 15.2992 9.98743 15.2858 9.96037L13.3844 6.10109C13.268 5.85719 13.0997 5.63969 12.8903 5.46276C12.681 5.28582 12.4353 5.15342 12.1694 5.07419C11.7328 4.95113 11.2651 4.9819 10.8499 5.16101C10.4346 5.34013 10.099 5.6559 9.90287 6.05187L7.93195 10.0443C7.92082 10.0676 7.90301 10.0873 7.88061 10.1012C7.85822 10.115 7.83218 10.1224 7.80558 10.1224C7.77898 10.1224 7.75294 10.115 7.73055 10.1012C7.70815 10.0873 7.69033 10.0676 7.67921 10.0443C7.58379 9.81808 7.44283 9.6124 7.26449 9.43912C7.08615 9.26585 6.87396 9.12842 6.6402 9.03479C6.40644 8.94116 6.15577 8.89319 5.90267 8.89366C5.64957 8.89412 5.39909 8.94301 5.1657 9.0375C4.69631 9.23584 4.3269 9.60477 4.13764 10.0642C3.94837 10.5237 3.95452 11.0367 4.15473 11.4918C4.56753 12.3879 5.17664 13.187 5.94016 13.8342C5.96776 13.8583 5.9866 13.8904 5.9939 13.9256C6.00121 13.9609 5.99659 13.9974 5.98074 14.03L5.3454 15.3209C5.12465 15.759 5.08943 16.2628 5.24721 16.7256C5.40499 17.1884 5.74336 17.5736 6.19058 17.7997C6.45826 17.9306 6.75424 17.9984 7.05431 17.9977C7.41601 17.9968 7.77009 17.8974 8.07587 17.711C8.38166 17.5246 8.62673 17.2588 8.78293 16.944L9.33131 15.8321C9.34888 15.7966 9.37883 15.7682 9.41592 15.7518C9.453 15.7354 9.49487 15.7322 9.53419 15.7426C10.1863 15.9172 10.8596 16.0075 11.5364 16.0111C12.2762 16.0089 13.012 15.9057 13.7218 15.7045C13.7615 15.6936 13.8039 15.6965 13.8416 15.7127C13.8793 15.7288 13.91 15.7572 13.9282 15.7929L14.4708 16.8948C14.6248 17.2173 14.8693 17.4917 15.1767 17.6871C15.484 17.8824 15.8419 17.9908 16.2098 18C16.5134 18.0014 16.8131 17.9331 17.084 17.8009C18.0184 17.3456 18.3767 16.2281 17.9269 15.3153L17.244 13.9304C17.2283 13.8981 17.2236 13.8619 17.2307 13.8269C17.2378 13.7919 17.2562 13.7599 17.2834 13.7358C18.6359 12.5485 19.5705 10.9834 19.9569 9.25899ZM8.14991 16.6565C8.08032 16.7973 7.98242 16.9233 7.86191 17.0272C7.7414 17.1312 7.60068 17.211 7.44793 17.262C7.29518 17.313 7.13344 17.3342 6.97212 17.3243C6.81081 17.3145 6.65313 17.2738 6.50825 17.2046C6.2206 17.0587 6.00331 16.8103 5.90263 16.5122C5.80194 16.214 5.82581 15.8898 5.96914 15.6083L6.49665 14.5378C6.50785 14.5163 6.52368 14.4973 6.54309 14.4822C6.5625 14.4671 6.58504 14.4561 6.60919 14.4501C6.63335 14.4441 6.65856 14.4431 6.68314 14.4472C6.70772 14.4513 6.7311 14.4605 6.75171 14.4741C6.86765 14.5512 6.98359 14.6262 7.09952 14.6978C7.55985 14.9832 8.04653 15.227 8.55337 15.426C8.57492 15.4345 8.59447 15.4472 8.61087 15.4631C8.62727 15.4791 8.64018 15.4981 8.64883 15.5189C8.65748 15.5398 8.6617 15.5621 8.66123 15.5846C8.66077 15.6071 8.65563 15.6292 8.64612 15.6497L8.14991 16.6565ZM11.5318 15.3399C8.72844 15.3399 5.76509 13.5064 4.78427 11.1663C4.71956 11.0224 4.68535 10.8674 4.68365 10.7106C4.68196 10.5537 4.71281 10.3981 4.7744 10.2529C4.83598 10.1078 4.92706 9.97594 5.04225 9.86525C5.15745 9.75456 5.29443 9.66723 5.44515 9.60841C5.59586 9.54959 5.75725 9.52046 5.91981 9.52274C6.08237 9.52502 6.24281 9.55867 6.39168 9.6217C6.54056 9.68473 6.67485 9.77587 6.78666 9.88974C6.89847 10.0036 6.98553 10.1379 7.04271 10.2848C7.65718 11.7513 9.70926 12.9896 11.5318 12.9896C11.8114 12.9887 12.0904 12.9637 12.3654 12.9147C12.4031 12.9071 12.4424 12.9121 12.4769 12.9287C12.5114 12.9454 12.5391 12.9727 12.5555 13.0064L13.476 14.8712C13.4871 14.8936 13.4928 14.9181 13.4928 14.943C13.4928 14.9678 13.487 14.9923 13.4759 15.0148C13.4648 15.0372 13.4486 15.0569 13.4286 15.0725C13.4085 15.0881 13.3852 15.0992 13.3601 15.105C12.7638 15.2596 12.1492 15.3385 11.5318 15.3399ZM11.1295 12.173L11.5527 11.315C11.5603 11.2997 11.5723 11.2867 11.5873 11.2776C11.6023 11.2685 11.6196 11.2637 11.6373 11.2637C11.655 11.2637 11.6723 11.2685 11.6873 11.2776C11.7022 11.2867 11.7143 11.2997 11.7219 11.315L12.1347 12.1518C12.1412 12.1646 12.1445 12.1787 12.1443 12.193C12.1441 12.2073 12.1405 12.2214 12.1336 12.234C12.1267 12.2467 12.1168 12.2576 12.1047 12.2659C12.0926 12.2741 12.0786 12.2795 12.0639 12.2815C11.8876 12.3054 11.7098 12.3178 11.5318 12.3184C11.424 12.3184 11.3138 12.3184 11.2048 12.3028C11.1899 12.3011 11.1756 12.2961 11.163 12.288C11.1505 12.28 11.1401 12.2692 11.1328 12.2565C11.1254 12.2438 11.1213 12.2297 11.1207 12.2151C11.1201 12.2006 11.1231 12.1862 11.1295 12.173ZM16.7652 17.2069C16.6205 17.2765 16.4628 17.3175 16.3015 17.3276C16.1401 17.3376 15.9783 17.3165 15.8255 17.2655C15.6727 17.2144 15.532 17.1345 15.4117 17.0303C15.2914 16.9261 15.1938 16.7998 15.1247 16.6587L11.8031 9.91787C11.7883 9.8875 11.7648 9.86182 11.7355 9.84383C11.7061 9.82584 11.6721 9.81629 11.6373 9.81629C11.6025 9.81629 11.5684 9.82584 11.5391 9.84383C11.5097 9.86182 11.4863 9.8875 11.4715 9.91787L10.442 12.0075C10.424 12.0444 10.3926 12.0737 10.3537 12.0898C10.3148 12.1059 10.2711 12.1076 10.231 12.0947C9.53557 11.8632 8.90204 11.4857 8.37599 10.9895C8.35108 10.9651 8.33459 10.9338 8.32878 10.8999C8.32297 10.8661 8.32812 10.8314 8.34352 10.8005L10.5695 6.28343C10.6455 6.12248 10.7658 5.98474 10.9173 5.8852C11.0637 5.78524 11.231 5.71727 11.4074 5.686C11.5838 5.65474 11.7652 5.66093 11.9388 5.70416C12.1125 5.74739 12.2744 5.8266 12.4131 5.9363C12.5518 6.046 12.6641 6.18354 12.7422 6.33936L17.302 15.6083C17.4458 15.8894 17.4701 16.2136 17.3699 16.5118C17.2696 16.8099 17.0526 17.0586 16.7652 17.2046V17.2069ZM15.8052 11.0063C15.7915 10.978 15.7862 10.9466 15.7899 10.9156C15.7936 10.8846 15.8061 10.8552 15.8261 10.8307C16.354 10.1873 16.7199 9.43445 16.895 8.63144C16.95 8.36511 17.0989 8.12537 17.3164 7.95303C17.5339 7.78069 17.8066 7.6864 18.088 7.6862C18.2738 7.68623 18.4572 7.72715 18.6241 7.80584C18.7911 7.88454 18.9373 7.99894 19.0515 8.14034C19.1658 8.28174 19.2451 8.44642 19.2834 8.62185C19.3218 8.79728 19.3182 8.97884 19.2729 9.15272C18.9412 10.621 18.1761 11.9652 17.0701 13.0232C17.0504 13.0424 17.0263 13.0567 16.9997 13.065C16.9731 13.0733 16.9448 13.0754 16.9172 13.071C16.8897 13.0666 16.8636 13.0559 16.8411 13.0398C16.8187 13.0237 16.8006 13.0027 16.7884 12.9784L15.8052 11.0063Z" stroke="white" style="stroke:white;stroke:white;stroke-opacity:1;" stroke-width="0.143067" mask="url(#path-1-outside-1_1977_5893)"/>
</svg>
