<svg width="16" height="16" xmlns="http://www.w3.org/2000/svg" fill="context-fill" fill-opacity="context-fill-opacity">
  <path d="M11.72 6.586c-.799.537-1.787 1.167-3.303 1.422a.5.5 0 0 0-.418.492v2.564c0 2.288 1.648 4.08 3.822 4.902a.5.5 0 0 0 .356 0c2.174-.822 3.822-2.614 3.822-4.902V8.5a.5.5 0 0 0-.419-.492c-1.514-.255-2.503-.885-3.302-1.422a.5.5 0 0 0-.56 0zm.28.992c.716.47 1.69.982 3 1.281v2.205c0 1.741-1.23 3.108-3 3.848-1.77-.74-3-2.107-3-3.848V8.86a9.083 9.083 0 0 0 3-1.28z"/>
  <path d="M6 0C4.901 0 4 .901 4 2v10c0 1.099.901 2 2 2h1.836a5.373 5.373 0 0 1-.488-1H6c-.558 0-1-.442-1-1V2c0-.558.442-1 1-1h6c.558 0 1 .442 1 1v3.865c.203.139.748.48 1 .592V2c0-1.1-.902-2-2-2H6z"/>
  <path d="M3 2.271C2.404 2.619 2 3.265 2 4v8.5C2 14.427 3.573 16 5.5 16h4.252a7.236 7.236 0 0 1-1.154-1H5.5A2.492 2.492 0 0 1 3 12.5z"/>
</svg>
