<?xml version="1.0" encoding="utf-8"?>
<svg version="1.1" id="Layer_1" xmlns="http://www.w3.org/2000/svg" xmlns:xlink="http://www.w3.org/1999/xlink" x="0px" y="0px"
	 viewBox="0 0 800 800" fill="context-fill" fill-opacity="context-fill-opacity">
<path d="M663.1,64.2H423.9h-47.8H136.9c-52.8,0-95.7,42.8-95.7,95.7v478.3c0,52.8,42.8,95.7,95.7,95.7h239.2h47.8h239.2
	c52.8,0,95.7-42.8,95.7-95.7V159.8C758.8,107,715.9,64.2,663.1,64.2z M376.1,123.1v551.8V686h-95.7h-47.8h-47.8h-47.8
	c-26.4,0-47.8-21.4-47.8-47.8V159.8c0-26.4,21.4-47.8,47.8-47.8h47.8h47.8h47.8h95.7V123.1z M710.9,638.2
	c0,26.4-21.4,47.8-47.8,47.8H423.9v-11.1V123.1V112h239.2c26.4,0,47.8,21.4,47.8,47.8V638.2z"/>
</svg>
