<svg version="1.2" xmlns="http://www.w3.org/2000/svg" viewBox="0 0 24 24" width="24" height="24" fill="context-fill" fill-opacity="context-fill-opacity">
	<title>menu-svg</title>
	<path d="m19.1 14.5q-0.1 0-0.1 0.1 0 0.1 0 0.2l0.9 1.8c0.6 1.2 0.2 2.7-1.1 3.3q-0.5 0.3-1.2 0.3-0.7 0-1.3-0.4-0.7-0.4-1-1.1l-0.7-1.5q-0.1 0-0.1-0.1-0.1 0-0.2 0-1.4 0.4-2.9 0.4-1.4 0-2.7-0.3-0.1 0-0.2 0 0 0-0.1 0.1l-0.7 1.5q-0.3 0.6-1 1-0.6 0.4-1.3 0.4-0.6 0-1.2-0.3c-0.6-0.3-1-0.8-1.2-1.4-0.2-0.6-0.2-1.3 0.1-1.9l0.8-1.7q0.1-0.1 0.1-0.2-0.1 0-0.1-0.1c-1-0.8-1.8-1.9-2.4-3.1-0.3-0.6-0.3-1.3 0-1.9 0.2-0.6 0.7-1.1 1.4-1.4q0.4-0.2 0.9-0.2 0.6 0 1 0.2 0.5 0.2 0.9 0.5 0.3 0.4 0.5 0.9 0 0 0.1 0 0 0.1 0.1 0.1 0 0 0.1-0.1 0 0 0.1 0l2.6-5.4c0.3-0.5 0.7-0.9 1.3-1.2 0.5-0.2 1.1-0.3 1.7-0.1q0.6 0.2 1 0.5 0.4 0.4 0.7 0.9l2.5 5.1q0 0.1 0.1 0.1 0 0.1 0.1 0.1 0.1 0 0.1-0.1 0.1 0 0.1 0 0.6-0.9 0.8-2c0.1-0.6 0.4-1.1 0.9-1.4 0.5-0.4 1-0.6 1.6-0.6q0.3 0 0.5 0 0.6 0.1 1 0.4 0.5 0.4 0.8 0.8c0.3 0.5 0.4 1.2 0.2 1.8-0.5 2.3-1.7 4.4-3.5 6zm-11.6 2.6q0-0.1 0-0.1 0-0.1 0-0.1 0-0.1 0-0.1-0.1 0-0.1 0-1-0.4-2-1-0.2-0.2-0.4-0.3-0.1 0-0.1-0.1-0.1 0-0.1 0-0.1 0.1-0.1 0.1 0 0-0.1 0.1l-0.7 1.4c-0.2 0.4-0.2 0.8-0.1 1.2 0.2 0.4 0.5 0.7 0.9 0.9q0.2 0.2 0.6 0.2 0.3 0 0.6-0.1 0.3-0.1 0.6-0.3 0.2-0.2 0.3-0.5zm6.4-0.7q0 0 0-0.1 0.1 0 0.1 0 0-0.1 0-0.1 0-0.1 0-0.1l-1.2-2.5q-0.1-0.1-0.1-0.1-0.1-0.1-0.2-0.1-0.5 0.1-1.1 0.1c-2.4 0-5.2-1.6-6-3.6q-0.1-0.3-0.3-0.5-0.3-0.2-0.6-0.4-0.3-0.1-0.6-0.1-0.3 0-0.6 0.1-0.3 0.1-0.6 0.4-0.2 0.2-0.3 0.5-0.2 0.3-0.2 0.6 0 0.3 0.2 0.6c1.3 3.1 5.3 5.6 9 5.6q1.3 0 2.5-0.3zm4.5 2.8c0.4-0.2 0.7-0.5 0.8-0.9 0.2-0.4 0.1-0.9-0.1-1.3l-6.1-12.4q-0.1-0.3-0.4-0.5-0.3-0.2-0.6-0.3-0.4-0.1-0.8 0-0.3 0-0.6 0.2-0.3 0.2-0.5 0.6l-3 6q0 0.1 0 0.1 0 0.1 0.1 0.2c0.7 0.6 1.5 1.1 2.5 1.4q0.1 0.1 0.1 0 0.1 0 0.2-0.1l1.3-2.8q0.1 0 0.1-0.1 0.1 0 0.2 0 0 0 0.1 0 0 0.1 0.1 0.1l4.4 9.1q0.2 0.2 0.4 0.4 0.2 0.3 0.6 0.4 0.3 0.1 0.6 0 0.3 0 0.6-0.1zm-7.5-6.7q0 0 0 0.1 0 0 0 0 0 0 0.1 0 0.2 0.1 0.4 0 0.4 0 0.7 0 0.1 0 0.1 0 0 0 0-0.1 0 0 0 0 0-0.1 0-0.1l-0.5-1.1q-0.1 0-0.1 0 0-0.1 0-0.1-0.1 0-0.1 0.1 0 0-0.1 0l-0.5 1.2q0 0 0 0zm7.5 1q0.1 0.1 0.1 0.1 0.1 0 0.1 0.1 0.1 0 0.1-0.1 0.1 0 0.1 0c1.5-1.4 2.5-3.2 3-5.2q0.1-0.3 0-0.7-0.1-0.4-0.3-0.6-0.3-0.3-0.6-0.5-0.3-0.2-0.7-0.2c-0.4 0-0.8 0.2-1 0.4-0.3 0.2-0.5 0.6-0.6 0.9-0.2 1.1-0.7 2.1-1.4 3q-0.1 0-0.1 0.1 0 0 0 0.1z"/>
		<path d="m19.1 14.5q-0.1 0-0.1 0.1 0 0.1 0 0.2l0.9 1.8c0.6 1.2 0.2 2.7-1.1 3.3q-0.5 0.3-1.2 0.3-0.7 0-1.3-0.4-0.7-0.4-1-1.1l-0.7-1.5q-0.1 0-0.1-0.1-0.1 0-0.2 0-1.4 0.4-2.9 0.4-1.4 0-2.7-0.3-0.1 0-0.2 0 0 0-0.1 0.1l-0.7 1.5q-0.3 0.6-1 1-0.6 0.4-1.3 0.4-0.6 0-1.2-0.3c-0.6-0.3-1-0.8-1.2-1.4-0.2-0.6-0.2-1.3 0.1-1.9l0.8-1.7q0.1-0.1 0.1-0.2-0.1 0-0.1-0.1c-1-0.8-1.8-1.9-2.4-3.1-0.3-0.6-0.3-1.3 0-1.9 0.2-0.6 0.7-1.1 1.4-1.4q0.4-0.2 0.9-0.2 0.6 0 1 0.2 0.5 0.2 0.9 0.5 0.3 0.4 0.5 0.9 0 0 0.1 0 0 0.1 0.1 0.1 0 0 0.1-0.1 0 0 0.1 0l2.6-5.4c0.3-0.5 0.7-0.9 1.3-1.2 0.5-0.2 1.1-0.3 1.7-0.1q0.6 0.2 1 0.5 0.4 0.4 0.7 0.9l2.5 5.1q0 0.1 0.1 0.1 0 0.1 0.1 0.1 0.1 0 0.1-0.1 0.1 0 0.1 0 0.6-0.9 0.8-2c0.1-0.6 0.4-1.1 0.9-1.4 0.5-0.4 1-0.6 1.6-0.6q0.3 0 0.5 0 0.6 0.1 1 0.4 0.5 0.4 0.8 0.8c0.3 0.5 0.4 1.2 0.2 1.8-0.5 2.3-1.7 4.4-3.5 6zm-11.6 2.6q0-0.1 0-0.1 0-0.1 0-0.1 0-0.1 0-0.1-0.1 0-0.1 0-1-0.4-2-1-0.2-0.2-0.4-0.3-0.1 0-0.1-0.1-0.1 0-0.1 0-0.1 0.1-0.1 0.1 0 0-0.1 0.1l-0.7 1.4c-0.2 0.4-0.2 0.8-0.1 1.2 0.2 0.4 0.5 0.7 0.9 0.9q0.2 0.2 0.6 0.2 0.3 0 0.6-0.1 0.3-0.1 0.6-0.3 0.2-0.2 0.3-0.5zm6.4-0.7q0 0 0-0.1 0.1 0 0.1 0 0-0.1 0-0.1 0-0.1 0-0.1l-1.2-2.5q-0.1-0.1-0.1-0.1-0.1-0.1-0.2-0.1-0.5 0.1-1.1 0.1c-2.4 0-5.2-1.6-6-3.6q-0.1-0.3-0.3-0.5-0.3-0.2-0.6-0.4-0.3-0.1-0.6-0.1-0.3 0-0.6 0.1-0.3 0.1-0.6 0.4-0.2 0.2-0.3 0.5-0.2 0.3-0.2 0.6 0 0.3 0.2 0.6c1.3 3.1 5.3 5.6 9 5.6q1.3 0 2.5-0.3zm4.5 2.8c0.4-0.2 0.7-0.5 0.8-0.9 0.2-0.4 0.1-0.9-0.1-1.3l-6.1-12.4q-0.1-0.3-0.4-0.5-0.3-0.2-0.6-0.3-0.4-0.1-0.8 0-0.3 0-0.6 0.2-0.3 0.2-0.5 0.6l-3 6q0 0.1 0 0.1 0 0.1 0.1 0.2c0.7 0.6 1.5 1.1 2.5 1.4q0.1 0.1 0.1 0 0.1 0 0.2-0.1l1.3-2.8q0.1 0 0.1-0.1 0.1 0 0.2 0 0 0 0.1 0 0 0.1 0.1 0.1l4.4 9.1q0.2 0.2 0.4 0.4 0.2 0.3 0.6 0.4 0.3 0.1 0.6 0 0.3 0 0.6-0.1zm-7.5-6.7q0 0 0 0.1 0 0 0 0 0 0 0.1 0 0.2 0.1 0.4 0 0.4 0 0.7 0 0.1 0 0.1 0 0 0 0-0.1 0 0 0 0 0-0.1 0-0.1l-0.5-1.1q-0.1 0-0.1 0 0-0.1 0-0.1-0.1 0-0.1 0.1 0 0-0.1 0l-0.5 1.2q0 0 0 0zm7.5 1q0.1 0.1 0.1 0.1 0.1 0 0.1 0.1 0.1 0 0.1-0.1 0.1 0 0.1 0c1.5-1.4 2.5-3.2 3-5.2q0.1-0.3 0-0.7-0.1-0.4-0.3-0.6-0.3-0.3-0.6-0.5-0.3-0.2-0.7-0.2c-0.4 0-0.8 0.2-1 0.4-0.3 0.2-0.5 0.6-0.6 0.9-0.2 1.1-0.7 2.1-1.4 3q-0.1 0-0.1 0.1 0 0 0 0.1z"/>
</svg>