<?xml version="1.0" encoding="utf-8"?>
<!-- Generator: Adobe Illustrator 22.0.0, SVG Export Plug-In . SVG Version: 6.00 Build 0)  -->
<svg version="1.0" id="Layer_1" xmlns="http://www.w3.org/2000/svg" xmlns:xlink="http://www.w3.org/1999/xlink" x="0px" y="0px"
	 viewBox="0 0 24 24" fill="context-fill" fill-opacity="context-fill-opacity">
<path d="M22.8,5.8c-0.3-0.2-0.7-0.4-1.1-0.4c-0.2,0-0.4-0.1-0.6-0.1h0c-0.7,0-1.3,0.2-1.8,0.6c-0.5,0.4-0.9,1-1,1.6
	c-0.2,0.8-0.5,1.5-0.9,2.2c0,0-0.1,0.1-0.1,0.1c0,0-0.1,0-0.1,0c0,0-0.1,0-0.1,0c0,0-0.1-0.1-0.1-0.1l-2.9-5.8
	c-0.2-0.4-0.4-0.7-0.7-1c-0.3-0.3-0.7-0.5-1.1-0.6c-0.7-0.2-1.4-0.1-2,0.1C9.7,2.8,9.2,3.2,8.9,3.8l-2.9,6c0,0,0,0.1-0.1,0.1
	c0,0-0.1,0-0.1,0c0,0-0.1,0-0.1,0c0,0-0.1-0.1-0.1-0.1C5.4,9.5,5.2,9.2,4.9,8.9C4.6,8.6,4.3,8.4,4,8.3C3.6,8.2,3.2,8.1,2.9,8.1
	c-0.4,0-0.8,0.1-1.1,0.2C1,8.6,0.5,9.2,0.2,9.8c-0.3,0.7-0.3,1.5,0,2.1c0.6,1.3,1.5,2.5,2.7,3.5c0,0,0.1,0.1,0.1,0.1
	c0,0.1,0,0.1,0,0.2l-1,1.9c-0.3,0.7-0.4,1.4-0.1,2.1c0.2,0.7,0.8,1.3,1.4,1.6c0.4,0.2,0.8,0.3,1.3,0.3c0.6,0,1.1-0.2,1.5-0.4
	c0.5-0.3,0.8-0.7,1.1-1.1L8,18.5c0-0.1,0.1-0.1,0.1-0.1c0.1,0,0.1,0,0.2,0c1,0.3,2,0.4,3,0.4c1.1,0,2.2-0.2,3.3-0.5
	c0.1,0,0.1,0,0.2,0c0.1,0,0.1,0.1,0.1,0.1l0.8,1.6c0.2,0.5,0.6,0.9,1.1,1.2c0.5,0.3,1,0.5,1.5,0.5c0.5,0,0.9-0.1,1.3-0.3
	c1.4-0.7,1.9-2.4,1.3-3.7l-1-2.1c0-0.1,0-0.1,0-0.2c0-0.1,0-0.1,0.1-0.1c2-1.8,3.4-4.1,4-6.7c0.1-0.7,0-1.4-0.3-2
	C23.4,6.3,23.1,6,22.8,5.8z M7,18.2l-0.7,1.5c-0.1,0.2-0.3,0.4-0.4,0.6c-0.2,0.2-0.4,0.3-0.6,0.3c-0.2,0.1-0.5,0.1-0.7,0.1
	c-0.2,0-0.5-0.1-0.7-0.2c-0.4-0.2-0.8-0.6-0.9-1c-0.1-0.4-0.1-0.9,0.1-1.4l0.8-1.6c0,0,0-0.1,0.1-0.1c0,0,0.1,0,0.1,0
	c0,0,0.1,0,0.1,0c0,0,0.1,0,0.1,0c0.2,0.1,0.3,0.2,0.5,0.3c0.7,0.4,1.4,0.8,2.2,1.1c0,0,0.1,0,0.1,0.1C6.9,18,7,18,7,18
	c0,0,0,0.1,0,0.1C7,18.2,7,18.2,7,18.2z M14.2,17.3C14.2,17.3,14.2,17.3,14.2,17.3c-0.1,0.1-0.1,0.1-0.2,0.1
	c-0.9,0.2-1.8,0.3-2.7,0.3c-4.2,0-8.7-2.7-10.1-6.3C1.1,11.3,1,11,1,10.8c0-0.2,0-0.5,0.1-0.7c0.1-0.2,0.2-0.4,0.4-0.6
	c0.2-0.2,0.4-0.3,0.6-0.4C2.4,9.1,2.6,9,2.9,9c0.2,0,0.5,0,0.7,0.1C3.8,9.3,4,9.4,4.2,9.6c0.2,0.2,0.3,0.4,0.4,0.6
	c0.9,2.2,4,4.1,6.7,4.1c0.4,0,0.8,0,1.2-0.1c0.1,0,0.1,0,0.2,0c0.1,0,0.1,0.1,0.1,0.1l1.4,2.8c0,0,0,0.1,0,0.1
	C14.2,17.2,14.2,17.2,14.2,17.3z M10.7,13.1C10.7,13,10.7,13,10.7,13.1l0.7-1.3c0,0,0-0.1,0-0.1c0,0,0,0,0.1,0c0,0,0,0,0.1,0
	c0,0,0,0,0,0.1l0.6,1.2c0,0,0,0,0,0.1c0,0,0,0,0,0.1c0,0,0,0,0,0.1c0,0,0,0-0.1,0c-0.3,0-0.5,0.1-0.8,0.1c-0.2,0-0.3,0-0.5,0
	c0,0,0,0-0.1,0C10.7,13.2,10.7,13.1,10.7,13.1C10.7,13.1,10.7,13.1,10.7,13.1z M20,18.2c0.2,0.4,0.2,0.9,0.1,1.4
	c-0.1,0.4-0.5,0.8-0.9,1c-0.2,0.1-0.4,0.2-0.7,0.2c-0.2,0-0.5,0-0.7-0.1c-0.2-0.1-0.4-0.2-0.6-0.3c-0.2-0.2-0.3-0.4-0.4-0.6l-5-10.1
	c0,0-0.1-0.1-0.1-0.1c0,0-0.1,0-0.1,0c-0.1,0-0.1,0-0.1,0c0,0-0.1,0.1-0.1,0.1l-1.5,3.1c0,0.1-0.1,0.1-0.1,0.1c-0.1,0-0.1,0-0.2,0
	c-1-0.3-2-0.9-2.8-1.7c0,0-0.1-0.1-0.1-0.1c0-0.1,0-0.1,0-0.1l3.3-6.8c0.1-0.2,0.3-0.4,0.5-0.6c0.2-0.1,0.5-0.2,0.7-0.3
	c0.3-0.1,0.5,0,0.8,0c0.3,0.1,0.5,0.2,0.7,0.3C12.8,3.8,13,4,13.1,4.3L20,18.2z M22.9,8.5c-0.5,2.2-1.6,4.2-3.3,5.8
	c0,0-0.1,0.1-0.1,0.1c0,0-0.1,0-0.1,0c0,0-0.1,0-0.1,0c0,0-0.1-0.1-0.1-0.1l-1.5-3c0,0,0-0.1,0-0.1c0,0,0-0.1,0-0.1
	c0.8-1,1.3-2.1,1.6-3.3c0.1-0.4,0.3-0.8,0.6-1c0.3-0.3,0.7-0.4,1.2-0.4c0.3,0,0.6,0.1,0.8,0.2c0.3,0.1,0.5,0.3,0.6,0.5
	c0.2,0.2,0.3,0.4,0.3,0.7C23,7.9,23,8.2,22.9,8.5z"/>
</svg>
