<svg width="16" height="16" xmlns="http://www.w3.org/2000/svg" fill="context-fill" fill-opacity="context-fill-opacity">
  <path d="M7.5 0c-.647 0-1.204.42-1.412 1H4.5C3.677 1 3 1.677 3 2.5v3.76c.21-.086.723-.213 1-.232V2.5c0-.283.218-.5.5-.5h1.588c.208.58.765 1 1.412 1h3c.647 0 1.204-.42 1.412-1H13.5c.282 0 .5.217.5.5v12c0 .282-.218.5-.5.5h-2.586c.137.34.098.785 0 1H13.5c.823 0 1.5-.678 1.5-1.5v-12c0-.823-.677-1.5-1.5-1.5h-1.588c-.208-.58-.765-1-1.412-1zm0 1h3c.282 0 .5.218.5.5s-.218.5-.5.5h-3c-.282 0-.5-.218-.5-.5s.218-.5.5-.5z"/>
  <path d="M4.5 7A3.508 3.508 0 0 0 1 10.5C1 12.427 2.573 14 4.5 14c.784 0 1.509-.26 2.094-.7l2.553 2.554a.5.5 0 0 0 .707 0 .5.5 0 0 0 0-.707l-2.553-2.553c.438-.585.7-1.31.7-2.094C8 8.573 6.426 7 4.5 7zm0 1C5.887 8 7 9.113 7 10.5S5.887 13 4.5 13 2 11.887 2 10.5 3.113 8 4.5 8z"/>
</svg>
