<svg width="16" height="16" xmlns="http://www.w3.org/2000/svg" fill="context-fill" fill-opacity="context-fill-opacity">
  <path d="M3.453 3.115c-.973 0-1.88.34-2.533.78a.5.5 0 0 0 .559.83c.487-.328 1.244-.61 1.975-.61.835 0 1.537.219 1.979.65.368.36.568.929.568 1.924v.08c-.728-.221-1.415-.359-2.199-.359-.895 0-1.815.273-2.543.816C.531 7.77.001 8.622.001 9.666c0 1.845 1.375 3.255 3.051 3.255 1.094 0 2.143-.543 2.949-1.11v.61a.5.5 0 0 0 1 0V6.69c0-1.135-.247-2.032-.87-2.641-.692-.677-1.67-.934-2.677-.934zm.348 4.295c.764 0 1.405.146 2.199.408v2.73c-.75.608-2.013 1.373-2.95 1.373-1.13 0-2.05-.886-2.05-2.256 0-.718.33-1.245.857-1.639.527-.394 1.258-.617 1.943-.617zm7.648-5.406a.5.5 0 0 0-.428.354 28.188 28.188 0 0 0-.47 1.814c-.485.033-.99.038-1.519.003a.5.5 0 0 0-.53.467.5.5 0 0 0 .464.531c.476.031.935.031 1.377.01a22.568 22.568 0 0 0-.262 1.812c-.315.17-.627.378-.93.635-.862.732-1.39 1.665-1.582 2.572-.192.907-.057 1.82.51 2.445.273.3.672.445 1.068.445s.802-.122 1.205-.342c.195-.105.39-.235.582-.386.036.081.07.16.098.234a.5.5 0 0 0 .644.29.5.5 0 0 0 .29-.645c-.08-.211-.17-.413-.264-.621.326-.381.635-.834.91-1.36.458-.873.693-1.791.803-2.647 1.003.383 1.619 1.313 1.619 2.385 0 1.445-1.142 2.572-2.24 3.068a.5.5 0 0 0-.25.662.5.5 0 0 0 .662.25c1.374-.622 2.828-2.026 2.828-3.98a3.563 3.563 0 0 0-2.54-3.404c.003-.08.004-.157.005-.235a.5.5 0 0 0-.496-.502.5.5 0 0 0-.504.496l-.002.075a4.885 4.885 0 0 0-1.356.15c.062-.48.144-.98.242-1.488.82-.105 1.568-.275 2.244-.455a.5.5 0 0 0 .354-.611.5.5 0 0 0-.611-.356c-.55.146-1.136.283-1.762.381.111-.476.235-.95.37-1.408a.5.5 0 0 0-.337-.621.5.5 0 0 0-.194-.018zm.912 5.424.07.002c-.096.782-.305 1.611-.703 2.371a6.595 6.595 0 0 1-.45.738 6.652 6.652 0 0 1-.263-1.52c-.025-.398-.018-.861.018-1.368.432-.159.87-.222 1.328-.222zm-2.357.803c-.006.298-.004.583.013.85.064.996.28 1.735.506 2.321-.223.203-.442.36-.646.471-.292.158-.55.22-.727.22s-.263-.042-.33-.116c-.283-.312-.415-.889-.271-1.566.143-.679.555-1.428 1.25-2.018.068-.059.137-.11.205-.163z"/>
</svg>
