<?xml version="1.0" encoding="utf-8"?>
<svg version="1.1" id="Layer_1" xmlns="http://www.w3.org/2000/svg" xmlns:xlink="http://www.w3.org/1999/xlink" x="0px" y="0px"
	 viewBox="0 0 800 800" fill="context-fill" fill-opacity="context-fill-opacity">
<path d="M750,145.4c-14.7-8.5-31.8-13.4-50-13.4H250h-50H100c-18.2,0-35.3,4.9-50,13.4C20.1,162.7,0,195,0,232v368
c0,37,20.1,69.3,50,86.6c14.7,8.5,31.8,13.4,50,13.4h100h50h450c18.2,0,35.3-4.9,50-13.4c29.9-17.3,50-49.6,50-86.6V232
	C800,195,779.9,162.7,750,145.4z M200,650H100c-27.6,0-50-22.4-50-50V232c0-27.6,22.4-50,50-50h100V650z M750,600
	c0,27.6-22.4,50-50,50H250V182h450c27.6,0,50,22.4,50,50V600z"/>
</svg>
