<svg width="23" height="18" viewBox="0 0 23 18" fill="none" xmlns="http://www.w3.org/2000/svg">
<path d="M1.44411 3.36858C1.21333 2.13775 2.15758 1 3.40985 1H7.81325C8.40681 1 8.96971 1.26365 9.34969 1.71963L9.40031 1.78037C9.7803 2.23635 10.3432 2.5 10.9367 2.5H15.3153C16.2888 2.5 17.1208 3.20088 17.2862 4.16019L19.0966 14.6602C19.3073 15.8826 18.3661 17 17.1257 17H5.65985C4.69742 17 3.87147 16.3145 3.69411 15.3686L1.44411 3.36858Z" fill="#C21725"/>
<path d="M1.44411 3.36858C1.21333 2.13775 2.15758 1 3.40985 1H7.81325C8.40681 1 8.96971 1.26365 9.34969 1.71963L9.40031 1.78037C9.7803 2.23635 10.3432 2.5 10.9367 2.5H15.3153C16.2888 2.5 17.1208 3.20088 17.2862 4.16019L19.0966 14.6602C19.3073 15.8826 18.3661 17 17.1257 17H5.65985C4.69742 17 3.87147 16.3145 3.69411 15.3686L1.44411 3.36858Z" fill="white" fill-opacity="0.5"/>
<path d="M1.44411 3.36858C1.21333 2.13775 2.15758 1 3.40985 1H7.81325C8.40681 1 8.96971 1.26365 9.34969 1.71963L9.40031 1.78037C9.7803 2.23635 10.3432 2.5 10.9367 2.5H15.3153C16.2888 2.5 17.1208 3.20088 17.2862 4.16019L19.0966 14.6602C19.3073 15.8826 18.3661 17 17.1257 17H5.65985C4.69742 17 3.87147 16.3145 3.69411 15.3686L1.44411 3.36858Z" fill="url(#paint0_linear_204_3644)" fill-opacity="0.5"/>
<path d="M1.44411 3.36858C1.21333 2.13775 2.15758 1 3.40985 1H7.81325C8.40681 1 8.96971 1.26365 9.34969 1.71963L9.40031 1.78037C9.7803 2.23635 10.3432 2.5 10.9367 2.5H15.3153C16.2888 2.5 17.1208 3.20088 17.2862 4.16019L19.0966 14.6602C19.3073 15.8826 18.3661 17 17.1257 17H5.65985C4.69742 17 3.87147 16.3145 3.69411 15.3686L1.44411 3.36858Z" stroke="#C21725" stroke-width="1.5"/>
<path d="M5.59806 7.47376C5.83537 6.60364 6.62569 6 7.52759 6H19.3815C20.7002 6 21.658 7.25396 21.311 8.52623L19.4019 15.5262C19.1646 16.3964 18.3743 17 17.4724 17H5.6185C4.29975 17 3.34199 15.746 3.68897 14.4738L5.59806 7.47376Z" fill="#FFF5F5"/>
<path d="M5.59806 7.47376C5.83537 6.60364 6.62569 6 7.52759 6H19.3815C20.7002 6 21.658 7.25396 21.311 8.52623L19.4019 15.5262C19.1646 16.3964 18.3743 17 17.4724 17H5.6185C4.29975 17 3.34199 15.746 3.68897 14.4738L5.59806 7.47376Z" fill="url(#paint1_linear_204_3644)" fill-opacity="0.15"/>
<path d="M5.59806 7.47376C5.83537 6.60364 6.62569 6 7.52759 6H19.3815C20.7002 6 21.658 7.25396 21.311 8.52623L19.4019 15.5262C19.1646 16.3964 18.3743 17 17.4724 17H5.6185C4.29975 17 3.34199 15.746 3.68897 14.4738L5.59806 7.47376Z" stroke="#C21725" stroke-width="1.5"/>
<defs>
<linearGradient id="paint0_linear_204_3644" x1="13.5" y1="5.3125" x2="13.5" y2="17" gradientUnits="userSpaceOnUse">
<stop stop-opacity="0"/>
<stop offset="1"/>
</linearGradient>
<linearGradient id="paint1_linear_204_3644" x1="12.5" y1="4.99404" x2="12.5" y2="17" gradientUnits="userSpaceOnUse">
<stop stop-color="#C21725" stop-opacity="0"/>
<stop offset="1" stop-color="#C21725"/>
</linearGradient>
</defs>
</svg>
